<svg id="apple-pay_1_" data-name="apple-pay (1)" xmlns="http://www.w3.org/2000/svg" width="44.652" height="19" viewBox="0 0 44.652 19">
  <path id="Path_83" data-name="Path 83" d="M8.444,2.449A3.418,3.418,0,0,0,9.224,0,3.527,3.527,0,0,0,6.96,1.15a3.226,3.226,0,0,0-.816,2.338,2.665,2.665,0,0,0,2.3-1.039m.779,1.262c-1.262-.074-2.338.705-2.932.705s-1.521-.668-2.523-.668A3.723,3.723,0,0,0,.614,5.678c-1.336,2.338-.371,5.789.965,7.682.631.928,1.41,1.967,2.412,1.93.965-.037,1.336-.631,2.486-.631s1.484.631,2.523.594,1.707-.928,2.338-1.893a7.474,7.474,0,0,0,1.039-2.152,3.362,3.362,0,0,1-.408-5.975A3.455,3.455,0,0,0,9.224,3.711" transform="translate(0.026)" fill="#1b3535"/>
  <g id="Group_87" data-name="Group 87" transform="translate(14.891 1.076)">
    <path id="Path_84" data-name="Path 84" d="M45.37,2.9a4.413,4.413,0,0,1,4.639,4.6A4.461,4.461,0,0,1,45.3,12.14H42.289v4.787H40.1V2.9Zm-3.08,7.422h2.486c1.893,0,2.969-1.039,2.969-2.783,0-1.781-1.076-2.783-2.969-2.783H42.252v5.566Zm8.275,3.748c0-1.781,1.373-2.895,3.822-3.043l2.82-.148V10.1c0-1.15-.779-1.818-2.041-1.818a1.957,1.957,0,0,0-2.152,1.484h-2c.111-1.855,1.707-3.229,4.23-3.229,2.486,0,4.082,1.3,4.082,3.377v7.051h-2v-1.67h-.037a3.636,3.636,0,0,1-3.229,1.855C51.975,17.15,50.565,15.888,50.565,14.07Zm6.643-.928v-.816l-2.523.148c-1.262.074-1.967.631-1.967,1.521s.742,1.484,1.855,1.484A2.453,2.453,0,0,0,57.207,13.142Zm3.971,7.607V19.043a4.033,4.033,0,0,0,.668.037,1.716,1.716,0,0,0,1.818-1.447c0-.037.186-.631.186-.631L60.139,6.759H62.4l2.6,8.35h.037l2.6-8.35h2.227l-3.822,10.8c-.891,2.486-1.893,3.266-4.008,3.266C61.883,20.787,61.364,20.787,61.178,20.75Z" transform="translate(-40.1 -2.9)" fill="#1b3535"/>
  </g>
</svg>
