<svg xmlns="http://www.w3.org/2000/svg" width="50.647" height="20.113" viewBox="0 0 50.647 20.113">
  <g id="google-pay-primary-logo" transform="translate(0 0.024)">
    <g id="Group_233" data-name="Group 233" transform="translate(22.083 1.138)">
      <path id="Path_125" data-name="Path 125" d="M1042.771,63.418v5.894H1040.9V54.753h4.96a4.481,4.481,0,0,1,3.212,1.26,4.211,4.211,0,0,1,0,6.163,4.466,4.466,0,0,1-3.212,1.239l-3.089,0Zm0-6.872v5.083h3.136a2.534,2.534,0,0,0,1.9-4.262c-.017-.017-.032-.034-.049-.049a2.44,2.44,0,0,0-1.85-.772Zm11.953,2.48A4.638,4.638,0,0,1,1058,60.133a3.931,3.931,0,0,1,1.2,3.038v6.14h-1.788V67.928h-.081a3.572,3.572,0,0,1-3.091,1.708,4.012,4.012,0,0,1-2.754-.976,3.117,3.117,0,0,1-1.107-2.44,2.959,2.959,0,0,1,1.169-2.459,4.928,4.928,0,0,1,3.121-.914,5.533,5.533,0,0,1,2.743.609v-.429a2.13,2.13,0,0,0-.772-1.655,2.648,2.648,0,0,0-1.806-.681,2.866,2.866,0,0,0-2.48,1.322l-1.646-1.037a4.577,4.577,0,0,1,4.02-1.95Zm-2.421,7.237a1.5,1.5,0,0,0,.62,1.22,2.282,2.282,0,0,0,1.453.488,2.989,2.989,0,0,0,2.1-.874,2.732,2.732,0,0,0,.929-2.054,3.821,3.821,0,0,0-2.44-.7,3.159,3.159,0,0,0-1.9.549,1.645,1.645,0,0,0-.766,1.368Zm17.161-6.912L1063.221,73.7h-1.931l2.317-5.022-4.107-9.331h2.032l2.968,7.156h.04l2.887-7.156Z" transform="translate(-1040.9 -54.752)" fill="#5f6368"/>
    </g>
    <path id="Path_126" data-name="Path 126" d="M402.232,324.7a9.94,9.94,0,0,0-.144-1.7H394.2v3.221h4.517a3.868,3.868,0,0,1-1.67,2.542v2.092h2.7a8.174,8.174,0,0,0,2.489-6.152Z" transform="translate(-385.837 -316.171)" fill="#4285f4"/>
    <path id="Path_127" data-name="Path 127" d="M49.472,476.464a8,8,0,0,0,5.544-2.02l-2.7-2.092a5.072,5.072,0,0,1-7.542-2.652H42v2.156A8.361,8.361,0,0,0,49.472,476.464Z" transform="translate(-41.109 -459.759)" fill="#34a853"/>
    <path id="Path_128" data-name="Path 128" d="M3.668,222.557a5.011,5.011,0,0,1,0-3.2V217.2H.891a8.363,8.363,0,0,0,0,7.512Z" transform="translate(0 -212.615)" fill="#fbbc04"/>
    <path id="Path_129" data-name="Path 129" d="M49.472,3.288A4.543,4.543,0,0,1,52.68,4.542l2.389-2.387a8.046,8.046,0,0,0-5.6-2.179A8.365,8.365,0,0,0,42,4.585L44.777,6.74A5,5,0,0,1,49.472,3.288Z" transform="translate(-41.109 0)" fill="#ea4335"/>
  </g>
</svg>
